<svg width="193" height="45" viewBox="0 0 193 45" fill="none" xmlns="http://www.w3.org/2000/svg">
<rect x="0.5" y="0.5" width="192" height="44" rx="9.5" fill="white" stroke="white"/>
<path d="M29.6561 30V14.38H32.6921V30H29.6561ZM47.6991 30H44.7511V23.532C44.7511 22.608 44.5897 21.9333 44.2671 21.508C43.9444 21.0827 43.4971 20.87 42.9251 20.87C42.5291 20.87 42.1257 20.9727 41.7151 21.178C41.3191 21.3833 40.9597 21.6693 40.6371 22.036C40.3144 22.388 40.0797 22.7987 39.9331 23.268V30H36.9851V18.472H39.6471V20.606C39.9404 20.1073 40.3144 19.6893 40.7691 19.352C41.2237 19 41.7444 18.736 42.3311 18.56C42.9324 18.3693 43.5631 18.274 44.2231 18.274C44.9417 18.274 45.5284 18.406 45.9831 18.67C46.4524 18.9193 46.8044 19.264 47.0391 19.704C47.2884 20.1293 47.4571 20.6133 47.5451 21.156C47.6477 21.6987 47.6991 22.2487 47.6991 22.806V30ZM56.0924 30.066C55.3297 30.066 54.6257 29.9193 53.9804 29.626C53.3497 29.318 52.7997 28.8927 52.3304 28.35C51.8757 27.8073 51.5237 27.184 51.2744 26.48C51.0251 25.776 50.9004 25.028 50.9004 24.236C50.9004 23.4 51.0324 22.6227 51.2964 21.904C51.5604 21.1853 51.9271 20.5547 52.3964 20.012C52.8804 19.4547 53.4451 19.0293 54.0904 18.736C54.7504 18.428 55.4764 18.274 56.2684 18.274C57.1631 18.274 57.9477 18.4793 58.6224 18.89C59.2971 19.286 59.8544 19.8213 60.2944 20.496V18.472H62.8684V29.45C62.8684 30.594 62.5897 31.5693 62.0324 32.376C61.4897 33.1973 60.7344 33.8207 59.7664 34.246C58.7984 34.686 57.6984 34.906 56.4664 34.906C55.2197 34.906 54.1637 34.6933 53.2984 34.268C52.4331 33.8573 51.6924 33.2707 51.0764 32.508L52.6824 30.946C53.1224 31.4887 53.6724 31.914 54.3324 32.222C55.0071 32.53 55.7184 32.684 56.4664 32.684C57.0971 32.684 57.6691 32.5667 58.1824 32.332C58.7104 32.112 59.1284 31.76 59.4364 31.276C59.7591 30.8067 59.9204 30.198 59.9204 29.45V27.998C59.5391 28.658 58.9964 29.1713 58.2924 29.538C57.6031 29.89 56.8697 30.066 56.0924 30.066ZM57.0824 27.712C57.4051 27.712 57.7131 27.6607 58.0064 27.558C58.2997 27.4553 58.5711 27.316 58.8204 27.14C59.0697 26.964 59.2897 26.7587 59.4804 26.524C59.6711 26.2747 59.8177 26.0253 59.9204 25.776V23.026C59.7444 22.5713 59.4951 22.1753 59.1724 21.838C58.8644 21.5007 58.5124 21.244 58.1164 21.068C57.7351 20.8773 57.3317 20.782 56.9064 20.782C56.4517 20.782 56.0411 20.8773 55.6744 21.068C55.3077 21.2587 54.9924 21.53 54.7284 21.882C54.4644 22.2193 54.2591 22.6007 54.1124 23.026C53.9804 23.4367 53.9144 23.8693 53.9144 24.324C53.9144 24.7933 53.9951 25.2333 54.1564 25.644C54.3177 26.0547 54.5377 26.414 54.8164 26.722C55.1097 27.03 55.4471 27.272 55.8284 27.448C56.2244 27.624 56.6424 27.712 57.0824 27.712ZM73.7098 21.024C72.8151 21.024 72.0158 21.2 71.3118 21.552C70.6078 21.8893 70.1018 22.3807 69.7938 23.026V30H66.8458V18.472H69.5518V20.936C69.9624 20.144 70.4831 19.5207 71.1138 19.066C71.7444 18.6113 72.4118 18.362 73.1158 18.318C73.2771 18.318 73.4018 18.318 73.4898 18.318C73.5778 18.318 73.6511 18.3253 73.7098 18.34V21.024ZM81.8692 30.22C80.9452 30.22 80.1092 30.066 79.3612 29.758C78.6132 29.4353 77.9752 29.0027 77.4472 28.46C76.9192 27.9027 76.5085 27.272 76.2152 26.568C75.9365 25.8493 75.7972 25.094 75.7972 24.302C75.7972 23.202 76.0392 22.1973 76.5232 21.288C77.0219 20.3787 77.7259 19.6527 78.6352 19.11C79.5592 18.5527 80.6445 18.274 81.8912 18.274C83.1525 18.274 84.2305 18.5527 85.1252 19.11C86.0199 19.6527 86.7019 20.3787 87.1712 21.288C87.6552 22.1827 87.8972 23.1507 87.8972 24.192C87.8972 24.368 87.8899 24.5513 87.8752 24.742C87.8605 24.918 87.8459 25.0647 87.8312 25.182H78.9212C78.9799 25.7687 79.1485 26.282 79.4272 26.722C79.7205 27.162 80.0872 27.4993 80.5272 27.734C80.9819 27.954 81.4659 28.064 81.9792 28.064C82.5659 28.064 83.1159 27.9247 83.6292 27.646C84.1572 27.3527 84.5165 26.9713 84.7072 26.502L87.2372 27.206C86.9585 27.7927 86.5552 28.3133 86.0272 28.768C85.5139 29.2227 84.9052 29.582 84.2012 29.846C83.4972 30.0953 82.7199 30.22 81.8692 30.22ZM78.8552 23.312H84.8832C84.8245 22.7253 84.6559 22.2193 84.3772 21.794C84.1132 21.354 83.7612 21.0167 83.3212 20.782C82.8812 20.5327 82.3899 20.408 81.8472 20.408C81.3192 20.408 80.8352 20.5327 80.3952 20.782C79.9699 21.0167 79.6179 21.354 79.3392 21.794C79.0752 22.2193 78.9139 22.7253 78.8552 23.312ZM95.2591 30.22C94.2764 30.22 93.3378 30.0587 92.4431 29.736C91.5484 29.4133 90.7784 28.9367 90.1331 28.306L91.1891 26.392C91.8784 26.9493 92.5531 27.36 93.2131 27.624C93.8878 27.888 94.5331 28.02 95.1491 28.02C95.7211 28.02 96.1758 27.9173 96.5131 27.712C96.8651 27.5067 97.0411 27.1987 97.0411 26.788C97.0411 26.5093 96.9458 26.2967 96.7551 26.15C96.5644 25.9887 96.2858 25.8493 95.9191 25.732C95.5671 25.6147 95.1344 25.4827 94.6211 25.336C93.7704 25.0573 93.0591 24.786 92.4871 24.522C91.9151 24.258 91.4824 23.928 91.1891 23.532C90.9104 23.1213 90.7711 22.6007 90.7711 21.97C90.7711 21.2073 90.9618 20.5547 91.3431 20.012C91.7391 19.4547 92.2818 19.022 92.9711 18.714C93.6751 18.406 94.4964 18.252 95.4351 18.252C96.2564 18.252 97.0338 18.384 97.7671 18.648C98.5004 18.8973 99.1678 19.308 99.7691 19.88L98.5811 21.75C97.9944 21.2953 97.4371 20.9653 96.9091 20.76C96.3811 20.54 95.8458 20.43 95.3031 20.43C94.9951 20.43 94.7018 20.4667 94.4231 20.54C94.1591 20.6133 93.9391 20.738 93.7631 20.914C93.6018 21.0753 93.5211 21.31 93.5211 21.618C93.5211 21.8967 93.5944 22.1167 93.7411 22.278C93.9024 22.4247 94.1371 22.5567 94.4451 22.674C94.7678 22.7913 95.1564 22.9233 95.6111 23.07C96.5351 23.334 97.3124 23.6053 97.9431 23.884C98.5884 24.1627 99.0724 24.5073 99.3951 24.918C99.7178 25.314 99.8791 25.864 99.8791 26.568C99.8791 27.712 99.4611 28.6067 98.6251 29.252C97.7891 29.8973 96.6671 30.22 95.2591 30.22ZM102.412 26.59C102.412 25.842 102.618 25.1893 103.028 24.632C103.454 24.06 104.04 23.62 104.788 23.312C105.536 23.004 106.394 22.85 107.362 22.85C107.846 22.85 108.338 22.8867 108.836 22.96C109.335 23.0333 109.768 23.1507 110.134 23.312V22.696C110.134 21.9627 109.914 21.398 109.474 21.002C109.049 20.606 108.411 20.408 107.56 20.408C106.93 20.408 106.328 20.518 105.756 20.738C105.184 20.958 104.583 21.2807 103.952 21.706L103.006 19.77C103.769 19.2713 104.546 18.8973 105.338 18.648C106.145 18.3987 106.988 18.274 107.868 18.274C109.511 18.274 110.787 18.6847 111.696 19.506C112.62 20.3273 113.082 21.5007 113.082 23.026V26.7C113.082 27.008 113.134 27.228 113.236 27.36C113.354 27.492 113.537 27.5727 113.786 27.602V30C113.522 30.044 113.28 30.0807 113.06 30.11C112.855 30.1393 112.679 30.154 112.532 30.154C111.946 30.154 111.498 30.022 111.19 29.758C110.897 29.494 110.714 29.1713 110.64 28.79L110.574 28.196C110.076 28.8413 109.452 29.34 108.704 29.692C107.956 30.044 107.194 30.22 106.416 30.22C105.654 30.22 104.964 30.066 104.348 29.758C103.747 29.4353 103.27 29.0027 102.918 28.46C102.581 27.9027 102.412 27.2793 102.412 26.59ZM109.584 27.184C109.746 27.008 109.878 26.832 109.98 26.656C110.083 26.48 110.134 26.3187 110.134 26.172V25.006C109.782 24.8593 109.401 24.7493 108.99 24.676C108.58 24.588 108.191 24.544 107.824 24.544C107.062 24.544 106.431 24.7127 105.932 25.05C105.448 25.3727 105.206 25.8053 105.206 26.348C105.206 26.6413 105.287 26.92 105.448 27.184C105.61 27.448 105.844 27.6607 106.152 27.822C106.46 27.9833 106.827 28.064 107.252 28.064C107.692 28.064 108.125 27.9833 108.55 27.822C108.976 27.646 109.32 27.4333 109.584 27.184Z" fill="#1D1854"/>
<path d="M139.925 21.6L129.162 0H136.956L147.348 21.6L137.327 45H129.533L139.925 21.6Z" fill="#01CEE6"/>
<path d="M161.823 21.6L151.431 0H165.163L175.927 21.6L165.906 45H151.802L161.823 21.6Z" fill="#0E76A8"/>
<path d="M151.06 21.6L140.296 0H148.09L158.483 21.6L148.833 45H140.667L151.06 21.6Z" fill="#03E7E7"/>
</svg>
