<svg width="214" height="45" viewBox="0 0 214 45" fill="none" xmlns="http://www.w3.org/2000/svg">
<rect x="0.5" y="0.5" width="213" height="44" rx="9.5" fill="white" stroke="white"/>
<path d="M20.3694 30V14.38H27.2774C27.996 14.38 28.656 14.5267 29.2574 14.82C29.8734 15.1133 30.4014 15.5093 30.8414 16.008C31.296 16.5067 31.6407 17.064 31.8754 17.68C32.1247 18.296 32.2494 18.9267 32.2494 19.572C32.2494 20.232 32.132 20.87 31.8974 21.486C31.6774 22.0873 31.3547 22.6153 30.9294 23.07C30.504 23.5247 30.0054 23.8767 29.4334 24.126L32.9974 30H29.6534L26.4414 24.764H23.4054V30H20.3694ZM23.4054 22.102H27.2114C27.5927 22.102 27.93 21.992 28.2234 21.772C28.5167 21.5373 28.7514 21.2293 28.9274 20.848C29.1034 20.4667 29.1914 20.0413 29.1914 19.572C29.1914 19.0733 29.0887 18.6407 28.8834 18.274C28.678 17.8927 28.414 17.592 28.0914 17.372C27.7834 17.152 27.446 17.042 27.0794 17.042H23.4054V22.102ZM40.9935 30.22C40.0695 30.22 39.2335 30.066 38.4855 29.758C37.7375 29.4353 37.0995 29.0027 36.5715 28.46C36.0435 27.9027 35.6328 27.272 35.3395 26.568C35.0608 25.8493 34.9215 25.094 34.9215 24.302C34.9215 23.202 35.1635 22.1973 35.6475 21.288C36.1462 20.3787 36.8502 19.6527 37.7595 19.11C38.6835 18.5527 39.7688 18.274 41.0155 18.274C42.2768 18.274 43.3548 18.5527 44.2495 19.11C45.1442 19.6527 45.8262 20.3787 46.2955 21.288C46.7795 22.1827 47.0215 23.1507 47.0215 24.192C47.0215 24.368 47.0142 24.5513 46.9995 24.742C46.9848 24.918 46.9702 25.0647 46.9555 25.182H38.0455C38.1042 25.7687 38.2728 26.282 38.5515 26.722C38.8448 27.162 39.2115 27.4993 39.6515 27.734C40.1062 27.954 40.5902 28.064 41.1035 28.064C41.6902 28.064 42.2402 27.9247 42.7535 27.646C43.2815 27.3527 43.6408 26.9713 43.8315 26.502L46.3615 27.206C46.0828 27.7927 45.6795 28.3133 45.1515 28.768C44.6382 29.2227 44.0295 29.582 43.3255 29.846C42.6215 30.0953 41.8442 30.22 40.9935 30.22ZM37.9795 23.312H44.0075C43.9488 22.7253 43.7802 22.2193 43.5015 21.794C43.2375 21.354 42.8855 21.0167 42.4455 20.782C42.0055 20.5327 41.5142 20.408 40.9715 20.408C40.4435 20.408 39.9595 20.5327 39.5195 20.782C39.0942 21.0167 38.7422 21.354 38.4635 21.794C38.1995 22.2193 38.0382 22.7253 37.9795 23.312ZM54.6474 30.066C53.8848 30.066 53.1808 29.9193 52.5354 29.626C51.9048 29.318 51.3548 28.8927 50.8854 28.35C50.4308 27.8073 50.0788 27.184 49.8294 26.48C49.5801 25.776 49.4554 25.028 49.4554 24.236C49.4554 23.4 49.5874 22.6227 49.8514 21.904C50.1154 21.1853 50.4821 20.5547 50.9514 20.012C51.4354 19.4547 52.0001 19.0293 52.6454 18.736C53.3054 18.428 54.0314 18.274 54.8234 18.274C55.7181 18.274 56.5028 18.4793 57.1774 18.89C57.8521 19.286 58.4094 19.8213 58.8494 20.496V18.472H61.4234V29.45C61.4234 30.594 61.1448 31.5693 60.5874 32.376C60.0448 33.1973 59.2894 33.8207 58.3214 34.246C57.3534 34.686 56.2534 34.906 55.0214 34.906C53.7748 34.906 52.7188 34.6933 51.8534 34.268C50.9881 33.8573 50.2474 33.2707 49.6314 32.508L51.2374 30.946C51.6774 31.4887 52.2274 31.914 52.8874 32.222C53.5621 32.53 54.2734 32.684 55.0214 32.684C55.6521 32.684 56.2241 32.5667 56.7374 32.332C57.2654 32.112 57.6834 31.76 57.9914 31.276C58.3141 30.8067 58.4754 30.198 58.4754 29.45V27.998C58.0941 28.658 57.5514 29.1713 56.8474 29.538C56.1581 29.89 55.4248 30.066 54.6474 30.066ZM55.6374 27.712C55.9601 27.712 56.2681 27.6607 56.5614 27.558C56.8548 27.4553 57.1261 27.316 57.3754 27.14C57.6248 26.964 57.8448 26.7587 58.0354 26.524C58.2261 26.2747 58.3728 26.0253 58.4754 25.776V23.026C58.2994 22.5713 58.0501 22.1753 57.7274 21.838C57.4194 21.5007 57.0674 21.244 56.6714 21.068C56.2901 20.8773 55.8868 20.782 55.4614 20.782C55.0068 20.782 54.5961 20.8773 54.2294 21.068C53.8628 21.2587 53.5474 21.53 53.2834 21.882C53.0194 22.2193 52.8141 22.6007 52.6674 23.026C52.5354 23.4367 52.4694 23.8693 52.4694 24.324C52.4694 24.7933 52.5501 25.2333 52.7114 25.644C52.8728 26.0547 53.0928 26.414 53.3714 26.722C53.6648 27.03 54.0021 27.272 54.3834 27.448C54.7794 27.624 55.1974 27.712 55.6374 27.712ZM65.4008 30V18.472H68.3488V30H65.4008ZM65.4008 16.866V13.94H68.3488V16.866H65.4008ZM76.5742 30.22C75.5916 30.22 74.6529 30.0587 73.7582 29.736C72.8636 29.4133 72.0936 28.9367 71.4482 28.306L72.5042 26.392C73.1936 26.9493 73.8682 27.36 74.5282 27.624C75.2029 27.888 75.8482 28.02 76.4642 28.02C77.0362 28.02 77.4909 27.9173 77.8282 27.712C78.1802 27.5067 78.3562 27.1987 78.3562 26.788C78.3562 26.5093 78.2609 26.2967 78.0702 26.15C77.8796 25.9887 77.6009 25.8493 77.2342 25.732C76.8822 25.6147 76.4496 25.4827 75.9362 25.336C75.0856 25.0573 74.3742 24.786 73.8022 24.522C73.2302 24.258 72.7976 23.928 72.5042 23.532C72.2256 23.1213 72.0862 22.6007 72.0862 21.97C72.0862 21.2073 72.2769 20.5547 72.6582 20.012C73.0542 19.4547 73.5969 19.022 74.2862 18.714C74.9902 18.406 75.8116 18.252 76.7502 18.252C77.5716 18.252 78.3489 18.384 79.0822 18.648C79.8156 18.8973 80.4829 19.308 81.0842 19.88L79.8962 21.75C79.3096 21.2953 78.7522 20.9653 78.2242 20.76C77.6962 20.54 77.1609 20.43 76.6182 20.43C76.3102 20.43 76.0169 20.4667 75.7382 20.54C75.4742 20.6133 75.2542 20.738 75.0782 20.914C74.9169 21.0753 74.8362 21.31 74.8362 21.618C74.8362 21.8967 74.9096 22.1167 75.0562 22.278C75.2176 22.4247 75.4522 22.5567 75.7602 22.674C76.0829 22.7913 76.4716 22.9233 76.9262 23.07C77.8502 23.334 78.6276 23.6053 79.2582 23.884C79.9036 24.1627 80.3876 24.5073 80.7102 24.918C81.0329 25.314 81.1942 25.864 81.1942 26.568C81.1942 27.712 80.7762 28.6067 79.9402 29.252C79.1042 29.8973 77.9822 30.22 76.5742 30.22ZM91.3629 29.406C91.1135 29.5087 90.8129 29.626 90.4609 29.758C90.1089 29.89 89.7275 29.9927 89.3169 30.066C88.9209 30.154 88.5175 30.198 88.1069 30.198C87.5642 30.198 87.0655 30.1027 86.6109 29.912C86.1562 29.7213 85.7895 29.4207 85.5109 29.01C85.2469 28.5847 85.1149 28.0347 85.1149 27.36V20.738H83.5969V18.472H85.1149V14.732H88.0629V18.472H90.4829V20.738H88.0629V26.37C88.0775 26.766 88.1875 27.052 88.3929 27.228C88.5982 27.404 88.8549 27.492 89.1629 27.492C89.4709 27.492 89.7715 27.4407 90.0649 27.338C90.3582 27.2353 90.5929 27.1473 90.7689 27.074L91.3629 29.406ZM101.082 21.024C100.188 21.024 99.3882 21.2 98.6842 21.552C97.9802 21.8893 97.4742 22.3807 97.1662 23.026V30H94.2182V18.472H96.9242V20.936C97.3349 20.144 97.8556 19.5207 98.4862 19.066C99.1169 18.6113 99.7842 18.362 100.488 18.318C100.65 18.318 100.774 18.318 100.862 18.318C100.95 18.318 101.024 18.3253 101.082 18.34V21.024ZM103.19 26.59C103.19 25.842 103.395 25.1893 103.806 24.632C104.231 24.06 104.818 23.62 105.566 23.312C106.314 23.004 107.172 22.85 108.14 22.85C108.624 22.85 109.115 22.8867 109.614 22.96C110.112 23.0333 110.545 23.1507 110.912 23.312V22.696C110.912 21.9627 110.692 21.398 110.252 21.002C109.826 20.606 109.188 20.408 108.338 20.408C107.707 20.408 107.106 20.518 106.534 20.738C105.962 20.958 105.36 21.2807 104.73 21.706L103.784 19.77C104.546 19.2713 105.324 18.8973 106.116 18.648C106.922 18.3987 107.766 18.274 108.646 18.274C110.288 18.274 111.564 18.6847 112.474 19.506C113.398 20.3273 113.86 21.5007 113.86 23.026V26.7C113.86 27.008 113.911 27.228 114.014 27.36C114.131 27.492 114.314 27.5727 114.564 27.602V30C114.3 30.044 114.058 30.0807 113.838 30.11C113.632 30.1393 113.456 30.154 113.31 30.154C112.723 30.154 112.276 30.022 111.968 29.758C111.674 29.494 111.491 29.1713 111.418 28.79L111.352 28.196C110.853 28.8413 110.23 29.34 109.482 29.692C108.734 30.044 107.971 30.22 107.194 30.22C106.431 30.22 105.742 30.066 105.126 29.758C104.524 29.4353 104.048 29.0027 103.696 28.46C103.358 27.9027 103.19 27.2793 103.19 26.59ZM110.362 27.184C110.523 27.008 110.655 26.832 110.758 26.656C110.86 26.48 110.912 26.3187 110.912 26.172V25.006C110.56 24.8593 110.178 24.7493 109.768 24.676C109.357 24.588 108.968 24.544 108.602 24.544C107.839 24.544 107.208 24.7127 106.71 25.05C106.226 25.3727 105.984 25.8053 105.984 26.348C105.984 26.6413 106.064 26.92 106.226 27.184C106.387 27.448 106.622 27.6607 106.93 27.822C107.238 27.9833 107.604 28.064 108.03 28.064C108.47 28.064 108.902 27.9833 109.328 27.822C109.753 27.646 110.098 27.4333 110.362 27.184ZM124.735 29.406C124.486 29.5087 124.185 29.626 123.833 29.758C123.481 29.89 123.1 29.9927 122.689 30.066C122.293 30.154 121.89 30.198 121.479 30.198C120.936 30.198 120.438 30.1027 119.983 29.912C119.528 29.7213 119.162 29.4207 118.883 29.01C118.619 28.5847 118.487 28.0347 118.487 27.36V20.738H116.969V18.472H118.487V14.732H121.435V18.472H123.855V20.738H121.435V26.37C121.45 26.766 121.56 27.052 121.765 27.228C121.97 27.404 122.227 27.492 122.535 27.492C122.843 27.492 123.144 27.4407 123.437 27.338C123.73 27.2353 123.965 27.1473 124.141 27.074L124.735 29.406ZM132.807 30.22C131.883 30.22 131.047 30.066 130.299 29.758C129.551 29.4353 128.913 29.0027 128.385 28.46C127.857 27.9027 127.447 27.272 127.153 26.568C126.875 25.8493 126.735 25.094 126.735 24.302C126.735 23.202 126.977 22.1973 127.461 21.288C127.96 20.3787 128.664 19.6527 129.573 19.11C130.497 18.5527 131.583 18.274 132.829 18.274C134.091 18.274 135.169 18.5527 136.063 19.11C136.958 19.6527 137.64 20.3787 138.109 21.288C138.593 22.1827 138.835 23.1507 138.835 24.192C138.835 24.368 138.828 24.5513 138.813 24.742C138.799 24.918 138.784 25.0647 138.769 25.182H129.859C129.918 25.7687 130.087 26.282 130.365 26.722C130.659 27.162 131.025 27.4993 131.465 27.734C131.92 27.954 132.404 28.064 132.917 28.064C133.504 28.064 134.054 27.9247 134.567 27.646C135.095 27.3527 135.455 26.9713 135.645 26.502L138.175 27.206C137.897 27.7927 137.493 28.3133 136.965 28.768C136.452 29.2227 135.843 29.582 135.139 29.846C134.435 30.0953 133.658 30.22 132.807 30.22ZM129.793 23.312H135.821C135.763 22.7253 135.594 22.2193 135.315 21.794C135.051 21.354 134.699 21.0167 134.259 20.782C133.819 20.5327 133.328 20.408 132.785 20.408C132.257 20.408 131.773 20.5327 131.333 20.782C130.908 21.0167 130.556 21.354 130.277 21.794C130.013 22.2193 129.852 22.7253 129.793 23.312ZM133.753 17.13L131.861 16.558L133.049 13.94H135.799L133.753 17.13Z" fill="#1D1854"/>
<path d="M155.15 21.6L143.215 0H151.858L163.381 21.6L152.269 45H143.627L155.15 21.6Z" fill="#01CEE6"/>
<path d="M179.431 21.6L167.908 0H183.135L195.069 21.6L183.958 45H168.319L179.431 21.6Z" fill="#E60275"/>
<path d="M167.496 21.6L155.562 0H164.204L175.727 21.6L165.027 45H155.973L167.496 21.6Z" fill="#BF02D6"/>
</svg>
