<svg width="691" height="87" viewBox="0 0 691 87" fill="none" xmlns="http://www.w3.org/2000/svg">
<g filter="url(#filter0_d_25_933)">
<rect x="15.0475" y="11.1748" width="660.893" height="56.7891" rx="8" fill="white"/>
</g>
<path d="M307.907 38.848V50H306.451V38.848H307.907ZM314.661 41.072C315.728 41.072 316.592 41.3973 317.253 42.048C317.914 42.688 318.245 43.616 318.245 44.832V50H316.805V45.04C316.805 44.1653 316.586 43.4987 316.149 43.04C315.712 42.5707 315.114 42.336 314.357 42.336C313.589 42.336 312.976 42.576 312.517 43.056C312.069 43.536 311.845 44.2347 311.845 45.152V50H310.389V41.232H311.845V42.48C312.133 42.032 312.522 41.6853 313.013 41.44C313.514 41.1947 314.064 41.072 314.661 41.072ZM324.239 41.088C324.997 41.088 325.658 41.2533 326.223 41.584C326.799 41.9147 327.226 42.3307 327.503 42.832V41.232H328.975V50.192C328.975 50.992 328.805 51.7013 328.463 52.32C328.122 52.9493 327.631 53.44 326.991 53.792C326.362 54.144 325.626 54.32 324.783 54.32C323.631 54.32 322.671 54.048 321.903 53.504C321.135 52.96 320.682 52.2187 320.543 51.28H321.983C322.143 51.8133 322.474 52.24 322.975 52.56C323.477 52.8907 324.079 53.056 324.783 53.056C325.583 53.056 326.234 52.8053 326.735 52.304C327.247 51.8027 327.503 51.0987 327.503 50.192V48.352C327.215 48.864 326.789 49.2907 326.223 49.632C325.658 49.9733 324.997 50.144 324.239 50.144C323.461 50.144 322.751 49.952 322.111 49.568C321.482 49.184 320.986 48.6453 320.623 47.952C320.261 47.2587 320.079 46.4693 320.079 45.584C320.079 44.688 320.261 43.904 320.623 43.232C320.986 42.5493 321.482 42.0213 322.111 41.648C322.751 41.2747 323.461 41.088 324.239 41.088ZM327.503 45.6C327.503 44.9387 327.37 44.3627 327.103 43.872C326.837 43.3813 326.474 43.008 326.015 42.752C325.567 42.4853 325.071 42.352 324.527 42.352C323.983 42.352 323.487 42.48 323.039 42.736C322.591 42.992 322.234 43.3653 321.967 43.856C321.701 44.3467 321.567 44.9227 321.567 45.584C321.567 46.256 321.701 46.8427 321.967 47.344C322.234 47.8347 322.591 48.2133 323.039 48.48C323.487 48.736 323.983 48.864 324.527 48.864C325.071 48.864 325.567 48.736 326.015 48.48C326.474 48.2133 326.837 47.8347 327.103 47.344C327.37 46.8427 327.503 46.2613 327.503 45.6ZM332.892 42.656C333.148 42.1547 333.511 41.7653 333.98 41.488C334.46 41.2107 335.041 41.072 335.724 41.072V42.576H335.34C333.708 42.576 332.892 43.4613 332.892 45.232V50H331.436V41.232H332.892V42.656ZM345.405 45.28C345.405 45.5573 345.389 45.8507 345.357 46.16H338.349C338.402 47.024 338.695 47.7013 339.229 48.192C339.773 48.672 340.429 48.912 341.197 48.912C341.826 48.912 342.349 48.768 342.765 48.48C343.191 48.1813 343.49 47.7867 343.661 47.296H345.229C344.994 48.1387 344.525 48.8267 343.821 49.36C343.117 49.8827 342.242 50.144 341.197 50.144C340.365 50.144 339.618 49.9573 338.957 49.584C338.306 49.2107 337.794 48.6827 337.421 48C337.047 47.3067 336.861 46.5067 336.861 45.6C336.861 44.6933 337.042 43.8987 337.405 43.216C337.767 42.5333 338.274 42.0107 338.925 41.648C339.586 41.2747 340.343 41.088 341.197 41.088C342.029 41.088 342.765 41.2693 343.405 41.632C344.045 41.9947 344.535 42.496 344.877 43.136C345.229 43.7653 345.405 44.48 345.405 45.28ZM343.901 44.976C343.901 44.4213 343.778 43.9467 343.533 43.552C343.287 43.1467 342.951 42.8427 342.525 42.64C342.109 42.4267 341.645 42.32 341.133 42.32C340.397 42.32 339.767 42.5547 339.245 43.024C338.733 43.4933 338.439 44.144 338.365 44.976H343.901ZM350.43 50.144C349.758 50.144 349.156 50.032 348.622 49.808C348.089 49.5733 347.668 49.2533 347.358 48.848C347.049 48.432 346.878 47.9573 346.846 47.424H348.35C348.393 47.8613 348.596 48.2187 348.958 48.496C349.332 48.7733 349.817 48.912 350.414 48.912C350.969 48.912 351.406 48.7893 351.726 48.544C352.046 48.2987 352.206 47.9893 352.206 47.616C352.206 47.232 352.036 46.9493 351.694 46.768C351.353 46.576 350.825 46.3893 350.11 46.208C349.46 46.0373 348.926 45.8667 348.51 45.696C348.105 45.5147 347.753 45.2533 347.454 44.912C347.166 44.56 347.022 44.1013 347.022 43.536C347.022 43.088 347.156 42.6773 347.422 42.304C347.689 41.9307 348.068 41.6373 348.558 41.424C349.049 41.2 349.609 41.088 350.238 41.088C351.209 41.088 351.993 41.3333 352.59 41.824C353.188 42.3147 353.508 42.9867 353.55 43.84H352.094C352.062 43.3813 351.876 43.0133 351.534 42.736C351.204 42.4587 350.756 42.32 350.19 42.32C349.668 42.32 349.252 42.432 348.942 42.656C348.633 42.88 348.478 43.1733 348.478 43.536C348.478 43.824 348.569 44.064 348.75 44.256C348.942 44.4373 349.177 44.5867 349.454 44.704C349.742 44.8107 350.137 44.9333 350.638 45.072C351.268 45.2427 351.78 45.4133 352.174 45.584C352.569 45.744 352.905 45.9893 353.182 46.32C353.47 46.6507 353.62 47.0827 353.63 47.616C353.63 48.096 353.497 48.528 353.23 48.912C352.964 49.296 352.585 49.6 352.094 49.824C351.614 50.0373 351.06 50.144 350.43 50.144ZM355.142 45.584C355.142 44.688 355.323 43.904 355.686 43.232C356.049 42.5493 356.545 42.0213 357.174 41.648C357.814 41.2747 358.523 41.088 359.302 41.088C360.07 41.088 360.737 41.2533 361.302 41.584C361.867 41.9147 362.289 42.3307 362.566 42.832V41.232H364.038V50H362.566V48.368C362.278 48.88 361.846 49.3067 361.27 49.648C360.705 49.9787 360.043 50.144 359.286 50.144C358.507 50.144 357.803 49.952 357.174 49.568C356.545 49.184 356.049 48.6453 355.686 47.952C355.323 47.2587 355.142 46.4693 355.142 45.584ZM362.566 45.6C362.566 44.9387 362.433 44.3627 362.166 43.872C361.899 43.3813 361.537 43.008 361.078 42.752C360.63 42.4853 360.134 42.352 359.59 42.352C359.046 42.352 358.55 42.48 358.102 42.736C357.654 42.992 357.297 43.3653 357.03 43.856C356.763 44.3467 356.63 44.9227 356.63 45.584C356.63 46.256 356.763 46.8427 357.03 47.344C357.297 47.8347 357.654 48.2133 358.102 48.48C358.55 48.736 359.046 48.864 359.59 48.864C360.134 48.864 360.63 48.736 361.078 48.48C361.537 48.2133 361.899 47.8347 362.166 47.344C362.433 46.8427 362.566 46.2613 362.566 45.6ZM370.22 45.6C370.22 44.6933 370.401 43.904 370.764 43.232C371.127 42.5493 371.628 42.0213 372.268 41.648C372.919 41.2747 373.66 41.088 374.492 41.088C375.569 41.088 376.455 41.3493 377.148 41.872C377.852 42.3947 378.316 43.12 378.54 44.048H376.972C376.823 43.5147 376.529 43.0933 376.092 42.784C375.665 42.4747 375.132 42.32 374.492 42.32C373.66 42.32 372.988 42.608 372.476 43.184C371.964 43.7493 371.708 44.5547 371.708 45.6C371.708 46.656 371.964 47.472 372.476 48.048C372.988 48.624 373.66 48.912 374.492 48.912C375.132 48.912 375.665 48.7627 376.092 48.464C376.519 48.1653 376.812 47.7387 376.972 47.184H378.54C378.305 48.08 377.836 48.8 377.132 49.344C376.428 49.8773 375.548 50.144 374.492 50.144C373.66 50.144 372.919 49.9573 372.268 49.584C371.628 49.2107 371.127 48.6827 370.764 48C370.401 47.3173 370.22 46.5173 370.22 45.6ZM384.307 50.144C383.485 50.144 382.739 49.9573 382.067 49.584C381.405 49.2107 380.883 48.6827 380.499 48C380.125 47.3067 379.939 46.5067 379.939 45.6C379.939 44.704 380.131 43.9147 380.515 43.232C380.909 42.5387 381.443 42.0107 382.115 41.648C382.787 41.2747 383.539 41.088 384.371 41.088C385.203 41.088 385.955 41.2747 386.627 41.648C387.299 42.0107 387.827 42.5333 388.211 43.216C388.605 43.8987 388.803 44.6933 388.803 45.6C388.803 46.5067 388.6 47.3067 388.195 48C387.8 48.6827 387.261 49.2107 386.579 49.584C385.896 49.9573 385.139 50.144 384.307 50.144ZM384.307 48.864C384.829 48.864 385.32 48.7413 385.779 48.496C386.237 48.2507 386.605 47.8827 386.883 47.392C387.171 46.9013 387.315 46.304 387.315 45.6C387.315 44.896 387.176 44.2987 386.899 43.808C386.621 43.3173 386.259 42.9547 385.811 42.72C385.363 42.4747 384.877 42.352 384.355 42.352C383.821 42.352 383.331 42.4747 382.883 42.72C382.445 42.9547 382.093 43.3173 381.827 43.808C381.56 44.2987 381.427 44.896 381.427 45.6C381.427 46.3147 381.555 46.9173 381.811 47.408C382.077 47.8987 382.429 48.2667 382.867 48.512C383.304 48.7467 383.784 48.864 384.307 48.864ZM394.989 41.072C396.056 41.072 396.92 41.3973 397.581 42.048C398.242 42.688 398.573 43.616 398.573 44.832V50H397.133V45.04C397.133 44.1653 396.914 43.4987 396.477 43.04C396.04 42.5707 395.442 42.336 394.685 42.336C393.917 42.336 393.304 42.576 392.845 43.056C392.397 43.536 392.173 44.2347 392.173 45.152V50H390.717V41.232H392.173V42.48C392.461 42.032 392.85 41.6853 393.341 41.44C393.842 41.1947 394.392 41.072 394.989 41.072ZM411.521 38.848V40.032H406.673V43.792H410.609V44.976H406.673V50H405.217V38.848H411.521ZM412.736 45.584C412.736 44.688 412.917 43.904 413.28 43.232C413.642 42.5493 414.138 42.0213 414.768 41.648C415.408 41.2747 416.117 41.088 416.896 41.088C417.664 41.088 418.33 41.2533 418.896 41.584C419.461 41.9147 419.882 42.3307 420.16 42.832V41.232H421.632V50H420.16V48.368C419.872 48.88 419.44 49.3067 418.864 49.648C418.298 49.9787 417.637 50.144 416.88 50.144C416.101 50.144 415.397 49.952 414.768 49.568C414.138 49.184 413.642 48.6453 413.28 47.952C412.917 47.2587 412.736 46.4693 412.736 45.584ZM420.16 45.6C420.16 44.9387 420.026 44.3627 419.76 43.872C419.493 43.3813 419.13 43.008 418.672 42.752C418.224 42.4853 417.728 42.352 417.184 42.352C416.64 42.352 416.144 42.48 415.696 42.736C415.248 42.992 414.89 43.3653 414.624 43.856C414.357 44.3467 414.224 44.9227 414.224 45.584C414.224 46.256 414.357 46.8427 414.624 47.344C414.89 47.8347 415.248 48.2133 415.696 48.48C416.144 48.736 416.64 48.864 417.184 48.864C417.728 48.864 418.224 48.736 418.672 48.48C419.13 48.2133 419.493 47.8347 419.76 47.344C420.026 46.8427 420.16 46.2613 420.16 45.6ZM423.548 45.6C423.548 44.6933 423.729 43.904 424.092 43.232C424.455 42.5493 424.956 42.0213 425.596 41.648C426.247 41.2747 426.988 41.088 427.82 41.088C428.897 41.088 429.783 41.3493 430.476 41.872C431.18 42.3947 431.644 43.12 431.868 44.048H430.3C430.151 43.5147 429.857 43.0933 429.42 42.784C428.993 42.4747 428.46 42.32 427.82 42.32C426.988 42.32 426.316 42.608 425.804 43.184C425.292 43.7493 425.036 44.5547 425.036 45.6C425.036 46.656 425.292 47.472 425.804 48.048C426.316 48.624 426.988 48.912 427.82 48.912C428.46 48.912 428.993 48.7627 429.42 48.464C429.847 48.1653 430.14 47.7387 430.3 47.184H431.868C431.633 48.08 431.164 48.8 430.46 49.344C429.756 49.8773 428.876 50.144 427.82 50.144C426.988 50.144 426.247 49.9573 425.596 49.584C424.956 49.2107 424.455 48.6827 424.092 48C423.729 47.3173 423.548 46.5173 423.548 45.6ZM441.811 45.28C441.811 45.5573 441.795 45.8507 441.763 46.16H434.755C434.808 47.024 435.102 47.7013 435.635 48.192C436.179 48.672 436.835 48.912 437.603 48.912C438.232 48.912 438.755 48.768 439.171 48.48C439.598 48.1813 439.896 47.7867 440.067 47.296H441.635C441.4 48.1387 440.931 48.8267 440.227 49.36C439.523 49.8827 438.648 50.144 437.603 50.144C436.771 50.144 436.024 49.9573 435.363 49.584C434.712 49.2107 434.2 48.6827 433.827 48C433.454 47.3067 433.267 46.5067 433.267 45.6C433.267 44.6933 433.448 43.8987 433.811 43.216C434.174 42.5333 434.68 42.0107 435.331 41.648C435.992 41.2747 436.75 41.088 437.603 41.088C438.435 41.088 439.171 41.2693 439.811 41.632C440.451 41.9947 440.942 42.496 441.283 43.136C441.635 43.7653 441.811 44.48 441.811 45.28ZM440.307 44.976C440.307 44.4213 440.184 43.9467 439.939 43.552C439.694 43.1467 439.358 42.8427 438.931 42.64C438.515 42.4267 438.051 42.32 437.539 42.32C436.803 42.32 436.174 42.5547 435.651 43.024C435.139 43.4933 434.846 44.144 434.771 44.976H440.307ZM445.189 42.864C445.487 42.3413 445.925 41.9147 446.501 41.584C447.077 41.2533 447.733 41.088 448.469 41.088C449.258 41.088 449.967 41.2747 450.597 41.648C451.226 42.0213 451.722 42.5493 452.085 43.232C452.447 43.904 452.629 44.688 452.629 45.584C452.629 46.4693 452.447 47.2587 452.085 47.952C451.722 48.6453 451.221 49.184 450.581 49.568C449.951 49.952 449.247 50.144 448.469 50.144C447.711 50.144 447.045 49.9787 446.469 49.648C445.903 49.3173 445.477 48.896 445.189 48.384V50H443.733V38.16H445.189V42.864ZM451.141 45.584C451.141 44.9227 451.007 44.3467 450.741 43.856C450.474 43.3653 450.111 42.992 449.653 42.736C449.205 42.48 448.709 42.352 448.165 42.352C447.631 42.352 447.135 42.4853 446.677 42.752C446.229 43.008 445.866 43.3867 445.589 43.888C445.322 44.3787 445.189 44.9493 445.189 45.6C445.189 46.2613 445.322 46.8427 445.589 47.344C445.866 47.8347 446.229 48.2133 446.677 48.48C447.135 48.736 447.631 48.864 448.165 48.864C448.709 48.864 449.205 48.736 449.653 48.48C450.111 48.2133 450.474 47.8347 450.741 47.344C451.007 46.8427 451.141 46.256 451.141 45.584ZM458.369 50.144C457.548 50.144 456.801 49.9573 456.129 49.584C455.468 49.2107 454.945 48.6827 454.561 48C454.188 47.3067 454.001 46.5067 454.001 45.6C454.001 44.704 454.193 43.9147 454.577 43.232C454.972 42.5387 455.505 42.0107 456.177 41.648C456.849 41.2747 457.601 41.088 458.433 41.088C459.265 41.088 460.017 41.2747 460.689 41.648C461.361 42.0107 461.889 42.5333 462.273 43.216C462.668 43.8987 462.865 44.6933 462.865 45.6C462.865 46.5067 462.663 47.3067 462.257 48C461.863 48.6827 461.324 49.2107 460.641 49.584C459.959 49.9573 459.201 50.144 458.369 50.144ZM458.369 48.864C458.892 48.864 459.383 48.7413 459.841 48.496C460.3 48.2507 460.668 47.8827 460.945 47.392C461.233 46.9013 461.377 46.304 461.377 45.6C461.377 44.896 461.239 44.2987 460.961 43.808C460.684 43.3173 460.321 42.9547 459.873 42.72C459.425 42.4747 458.94 42.352 458.417 42.352C457.884 42.352 457.393 42.4747 456.945 42.72C456.508 42.9547 456.156 43.3173 455.889 43.808C455.623 44.2987 455.489 44.896 455.489 45.6C455.489 46.3147 455.617 46.9173 455.873 47.408C456.14 47.8987 456.492 48.2667 456.929 48.512C457.367 48.7467 457.847 48.864 458.369 48.864ZM468.604 50.144C467.782 50.144 467.036 49.9573 466.364 49.584C465.702 49.2107 465.18 48.6827 464.796 48C464.422 47.3067 464.236 46.5067 464.236 45.6C464.236 44.704 464.428 43.9147 464.812 43.232C465.206 42.5387 465.74 42.0107 466.412 41.648C467.084 41.2747 467.836 41.088 468.668 41.088C469.5 41.088 470.252 41.2747 470.924 41.648C471.596 42.0107 472.124 42.5333 472.508 43.216C472.902 43.8987 473.1 44.6933 473.1 45.6C473.1 46.5067 472.897 47.3067 472.492 48C472.097 48.6827 471.558 49.2107 470.876 49.584C470.193 49.9573 469.436 50.144 468.604 50.144ZM468.604 48.864C469.126 48.864 469.617 48.7413 470.076 48.496C470.534 48.2507 470.902 47.8827 471.18 47.392C471.468 46.9013 471.612 46.304 471.612 45.6C471.612 44.896 471.473 44.2987 471.196 43.808C470.918 43.3173 470.556 42.9547 470.108 42.72C469.66 42.4747 469.174 42.352 468.652 42.352C468.118 42.352 467.628 42.4747 467.18 42.72C466.742 42.9547 466.39 43.3173 466.124 43.808C465.857 44.2987 465.724 44.896 465.724 45.6C465.724 46.3147 465.852 46.9173 466.108 47.408C466.374 47.8987 466.726 48.2667 467.164 48.512C467.601 48.7467 468.081 48.864 468.604 48.864ZM479.91 50L476.47 46.128V50H475.014V38.16H476.47V45.12L479.846 41.232H481.878L477.75 45.6L481.894 50H479.91Z" fill="#2F2F2F"/>
<path d="M279.093 32.8685H281.928V29.1641C281.439 29.1136 279.757 29 277.798 29C268.829 29 271.269 36.6204 270.912 37.7368H266.4V41.878H270.911V52.2981H276.441V41.879H280.769L281.456 37.7378H276.44C276.683 34.9963 275.455 32.8685 279.093 32.8685Z" fill="#3B5999"/>
<defs>
<filter id="filter0_d_25_933" x="0.0474854" y="0.174805" width="690.893" height="86.7891" filterUnits="userSpaceOnUse" color-interpolation-filters="sRGB">
<feFlood flood-opacity="0" result="BackgroundImageFix"/>
<feColorMatrix in="SourceAlpha" type="matrix" values="0 0 0 0 0 0 0 0 0 0 0 0 0 0 0 0 0 0 127 0" result="hardAlpha"/>
<feOffset dy="4"/>
<feGaussianBlur stdDeviation="7.5"/>
<feComposite in2="hardAlpha" operator="out"/>
<feColorMatrix type="matrix" values="0 0 0 0 0 0 0 0 0 0 0 0 0 0 0 0 0 0 0.11 0"/>
<feBlend mode="normal" in2="BackgroundImageFix" result="effect1_dropShadow_25_933"/>
<feBlend mode="normal" in="SourceGraphic" in2="effect1_dropShadow_25_933" result="shape"/>
</filter>
</defs>
</svg>
