<svg width="691" height="87" viewBox="0 0 691 87" fill="none" xmlns="http://www.w3.org/2000/svg">
<g filter="url(#filter0_d_25_924)">
<rect x="15.0475" y="11" width="660.893" height="56.7891" rx="8" fill="white"/>
</g>
<g clip-path="url(#clip0_25_924)">
<path d="M259.696 43.281L258.615 46.3085L254.664 46.3712C253.484 44.7281 252.814 42.8483 252.814 40.8507C252.814 38.919 253.44 37.0974 254.55 35.4934H254.551L258.068 35.9772L259.609 38.6002C259.287 39.3056 259.111 40.0628 259.111 40.8507C259.111 41.7058 259.318 42.5251 259.696 43.281Z" fill="#FBBB00"/>
<path d="M283.598 38.6746C283.776 39.3792 283.869 40.107 283.869 40.8507C283.869 41.6847 283.752 42.4983 283.53 43.283C282.774 45.9533 280.799 48.285 278.063 49.9351L278.062 49.9345L273.631 49.7649L273.004 46.8283C274.82 46.0295 276.239 44.7794 276.986 43.283H268.683V38.6746H277.107H283.598Z" fill="#518EF8"/>
<path d="M278.062 49.9344L278.063 49.935C275.402 51.5396 272.021 52.4997 268.342 52.4997C262.428 52.4997 257.287 50.0202 254.665 46.3712L259.696 43.281C261.008 45.9065 264.384 47.7755 268.342 47.7755C270.043 47.7755 271.637 47.4305 273.004 46.8282L278.062 49.9344Z" fill="#28B446"/>
<path d="M278.253 31.8835L273.223 34.973C271.807 34.3093 270.134 33.9259 268.342 33.9259C264.294 33.9259 260.855 35.8806 259.609 38.6003L254.551 35.4934H254.55C257.134 31.7555 262.34 29.2017 268.342 29.2017C272.109 29.2017 275.564 30.2085 278.253 31.8835Z" fill="#F14336"/>
</g>
<path d="M304.996 36.848V48H303.54V36.848H304.996ZM311.75 39.072C312.816 39.072 313.68 39.3973 314.342 40.048C315.003 40.688 315.334 41.616 315.334 42.832V48H313.894V43.04C313.894 42.1653 313.675 41.4987 313.238 41.04C312.8 40.5707 312.203 40.336 311.446 40.336C310.678 40.336 310.064 40.576 309.606 41.056C309.158 41.536 308.934 42.2347 308.934 43.152V48H307.478V39.232H308.934V40.48C309.222 40.032 309.611 39.6853 310.102 39.44C310.603 39.1947 311.152 39.072 311.75 39.072ZM321.328 39.088C322.085 39.088 322.747 39.2533 323.312 39.584C323.888 39.9147 324.315 40.3307 324.592 40.832V39.232H326.064V48.192C326.064 48.992 325.893 49.7013 325.552 50.32C325.211 50.9493 324.72 51.44 324.08 51.792C323.451 52.144 322.715 52.32 321.872 52.32C320.72 52.32 319.76 52.048 318.992 51.504C318.224 50.96 317.771 50.2187 317.632 49.28H319.072C319.232 49.8133 319.563 50.24 320.064 50.56C320.565 50.8907 321.168 51.056 321.872 51.056C322.672 51.056 323.323 50.8053 323.824 50.304C324.336 49.8027 324.592 49.0987 324.592 48.192V46.352C324.304 46.864 323.877 47.2907 323.312 47.632C322.747 47.9733 322.085 48.144 321.328 48.144C320.549 48.144 319.84 47.952 319.2 47.568C318.571 47.184 318.075 46.6453 317.712 45.952C317.349 45.2587 317.168 44.4693 317.168 43.584C317.168 42.688 317.349 41.904 317.712 41.232C318.075 40.5493 318.571 40.0213 319.2 39.648C319.84 39.2747 320.549 39.088 321.328 39.088ZM324.592 43.6C324.592 42.9387 324.459 42.3627 324.192 41.872C323.925 41.3813 323.563 41.008 323.104 40.752C322.656 40.4853 322.16 40.352 321.616 40.352C321.072 40.352 320.576 40.48 320.128 40.736C319.68 40.992 319.323 41.3653 319.056 41.856C318.789 42.3467 318.656 42.9227 318.656 43.584C318.656 44.256 318.789 44.8427 319.056 45.344C319.323 45.8347 319.68 46.2133 320.128 46.48C320.576 46.736 321.072 46.864 321.616 46.864C322.16 46.864 322.656 46.736 323.104 46.48C323.563 46.2133 323.925 45.8347 324.192 45.344C324.459 44.8427 324.592 44.2613 324.592 43.6ZM329.98 40.656C330.236 40.1547 330.599 39.7653 331.068 39.488C331.548 39.2107 332.13 39.072 332.812 39.072V40.576H332.428C330.796 40.576 329.98 41.4613 329.98 43.232V48H328.524V39.232H329.98V40.656ZM342.493 43.28C342.493 43.5573 342.477 43.8507 342.445 44.16H335.437C335.491 45.024 335.784 45.7013 336.317 46.192C336.861 46.672 337.517 46.912 338.285 46.912C338.915 46.912 339.437 46.768 339.853 46.48C340.28 46.1813 340.579 45.7867 340.749 45.296H342.317C342.083 46.1387 341.613 46.8267 340.909 47.36C340.205 47.8827 339.331 48.144 338.285 48.144C337.453 48.144 336.707 47.9573 336.045 47.584C335.395 47.2107 334.883 46.6827 334.509 46C334.136 45.3067 333.949 44.5067 333.949 43.6C333.949 42.6933 334.131 41.8987 334.493 41.216C334.856 40.5333 335.363 40.0107 336.013 39.648C336.675 39.2747 337.432 39.088 338.285 39.088C339.117 39.088 339.853 39.2693 340.493 39.632C341.133 39.9947 341.624 40.496 341.965 41.136C342.317 41.7653 342.493 42.48 342.493 43.28ZM340.989 42.976C340.989 42.4213 340.867 41.9467 340.621 41.552C340.376 41.1467 340.04 40.8427 339.613 40.64C339.197 40.4267 338.733 40.32 338.221 40.32C337.485 40.32 336.856 40.5547 336.333 41.024C335.821 41.4933 335.528 42.144 335.453 42.976H340.989ZM347.519 48.144C346.847 48.144 346.244 48.032 345.711 47.808C345.178 47.5733 344.756 47.2533 344.447 46.848C344.138 46.432 343.967 45.9573 343.935 45.424H345.439C345.482 45.8613 345.684 46.2187 346.047 46.496C346.42 46.7733 346.906 46.912 347.503 46.912C348.058 46.912 348.495 46.7893 348.815 46.544C349.135 46.2987 349.295 45.9893 349.295 45.616C349.295 45.232 349.124 44.9493 348.783 44.768C348.442 44.576 347.914 44.3893 347.199 44.208C346.548 44.0373 346.015 43.8667 345.599 43.696C345.194 43.5147 344.842 43.2533 344.543 42.912C344.255 42.56 344.111 42.1013 344.111 41.536C344.111 41.088 344.244 40.6773 344.511 40.304C344.778 39.9307 345.156 39.6373 345.647 39.424C346.138 39.2 346.698 39.088 347.327 39.088C348.298 39.088 349.082 39.3333 349.679 39.824C350.276 40.3147 350.596 40.9867 350.639 41.84H349.183C349.151 41.3813 348.964 41.0133 348.623 40.736C348.292 40.4587 347.844 40.32 347.279 40.32C346.756 40.32 346.34 40.432 346.031 40.656C345.722 40.88 345.567 41.1733 345.567 41.536C345.567 41.824 345.658 42.064 345.839 42.256C346.031 42.4373 346.266 42.5867 346.543 42.704C346.831 42.8107 347.226 42.9333 347.727 43.072C348.356 43.2427 348.868 43.4133 349.263 43.584C349.658 43.744 349.994 43.9893 350.271 44.32C350.559 44.6507 350.708 45.0827 350.719 45.616C350.719 46.096 350.586 46.528 350.319 46.912C350.052 47.296 349.674 47.6 349.183 47.824C348.703 48.0373 348.148 48.144 347.519 48.144ZM352.23 43.584C352.23 42.688 352.412 41.904 352.774 41.232C353.137 40.5493 353.633 40.0213 354.262 39.648C354.902 39.2747 355.612 39.088 356.39 39.088C357.158 39.088 357.825 39.2533 358.39 39.584C358.956 39.9147 359.377 40.3307 359.654 40.832V39.232H361.126V48H359.654V46.368C359.366 46.88 358.934 47.3067 358.358 47.648C357.793 47.9787 357.132 48.144 356.374 48.144C355.596 48.144 354.892 47.952 354.262 47.568C353.633 47.184 353.137 46.6453 352.774 45.952C352.412 45.2587 352.23 44.4693 352.23 43.584ZM359.654 43.6C359.654 42.9387 359.521 42.3627 359.254 41.872C358.988 41.3813 358.625 41.008 358.166 40.752C357.718 40.4853 357.222 40.352 356.678 40.352C356.134 40.352 355.638 40.48 355.19 40.736C354.742 40.992 354.385 41.3653 354.118 41.856C353.852 42.3467 353.718 42.9227 353.718 43.584C353.718 44.256 353.852 44.8427 354.118 45.344C354.385 45.8347 354.742 46.2133 355.19 46.48C355.638 46.736 356.134 46.864 356.678 46.864C357.222 46.864 357.718 46.736 358.166 46.48C358.625 46.2133 358.988 45.8347 359.254 45.344C359.521 44.8427 359.654 44.2613 359.654 43.6ZM367.309 43.6C367.309 42.6933 367.49 41.904 367.853 41.232C368.215 40.5493 368.717 40.0213 369.357 39.648C370.007 39.2747 370.749 39.088 371.581 39.088C372.658 39.088 373.543 39.3493 374.237 39.872C374.941 40.3947 375.405 41.12 375.629 42.048H374.061C373.911 41.5147 373.618 41.0933 373.181 40.784C372.754 40.4747 372.221 40.32 371.581 40.32C370.749 40.32 370.077 40.608 369.565 41.184C369.053 41.7493 368.797 42.5547 368.797 43.6C368.797 44.656 369.053 45.472 369.565 46.048C370.077 46.624 370.749 46.912 371.581 46.912C372.221 46.912 372.754 46.7627 373.181 46.464C373.607 46.1653 373.901 45.7387 374.061 45.184H375.629C375.394 46.08 374.925 46.8 374.221 47.344C373.517 47.8773 372.637 48.144 371.581 48.144C370.749 48.144 370.007 47.9573 369.357 47.584C368.717 47.2107 368.215 46.6827 367.853 46C367.49 45.3173 367.309 44.5173 367.309 43.6ZM381.395 48.144C380.574 48.144 379.827 47.9573 379.155 47.584C378.494 47.2107 377.971 46.6827 377.587 46C377.214 45.3067 377.027 44.5067 377.027 43.6C377.027 42.704 377.219 41.9147 377.603 41.232C377.998 40.5387 378.531 40.0107 379.203 39.648C379.875 39.2747 380.627 39.088 381.459 39.088C382.291 39.088 383.043 39.2747 383.715 39.648C384.387 40.0107 384.915 40.5333 385.299 41.216C385.694 41.8987 385.891 42.6933 385.891 43.6C385.891 44.5067 385.689 45.3067 385.283 46C384.889 46.6827 384.35 47.2107 383.667 47.584C382.985 47.9573 382.227 48.144 381.395 48.144ZM381.395 46.864C381.918 46.864 382.409 46.7413 382.867 46.496C383.326 46.2507 383.694 45.8827 383.971 45.392C384.259 44.9013 384.403 44.304 384.403 43.6C384.403 42.896 384.265 42.2987 383.987 41.808C383.71 41.3173 383.347 40.9547 382.899 40.72C382.451 40.4747 381.966 40.352 381.443 40.352C380.91 40.352 380.419 40.4747 379.971 40.72C379.534 40.9547 379.182 41.3173 378.915 41.808C378.649 42.2987 378.515 42.896 378.515 43.6C378.515 44.3147 378.643 44.9173 378.899 45.408C379.166 45.8987 379.518 46.2667 379.955 46.512C380.393 46.7467 380.873 46.864 381.395 46.864ZM392.078 39.072C393.144 39.072 394.008 39.3973 394.67 40.048C395.331 40.688 395.662 41.616 395.662 42.832V48H394.222V43.04C394.222 42.1653 394.003 41.4987 393.566 41.04C393.128 40.5707 392.531 40.336 391.774 40.336C391.006 40.336 390.392 40.576 389.934 41.056C389.486 41.536 389.262 42.2347 389.262 43.152V48H387.806V39.232H389.262V40.48C389.55 40.032 389.939 39.6853 390.43 39.44C390.931 39.1947 391.48 39.072 392.078 39.072ZM410.754 40.08C410.444 39.4293 409.996 38.928 409.41 38.576C408.823 38.2133 408.14 38.032 407.362 38.032C406.583 38.032 405.879 38.2133 405.25 38.576C404.631 38.928 404.14 39.44 403.778 40.112C403.426 40.7733 403.25 41.5413 403.25 42.416C403.25 43.2907 403.426 44.0587 403.778 44.72C404.14 45.3813 404.631 45.8933 405.25 46.256C405.879 46.608 406.583 46.784 407.362 46.784C408.45 46.784 409.346 46.4587 410.05 45.808C410.754 45.1573 411.164 44.2773 411.282 43.168H406.834V41.984H412.834V43.104C412.748 44.0213 412.46 44.864 411.97 45.632C411.479 46.3893 410.834 46.992 410.034 47.44C409.234 47.8773 408.343 48.096 407.362 48.096C406.327 48.096 405.383 47.856 404.53 47.376C403.676 46.8853 402.999 46.208 402.498 45.344C402.007 44.48 401.762 43.504 401.762 42.416C401.762 41.328 402.007 40.352 402.498 39.488C402.999 38.6133 403.676 37.936 404.53 37.456C405.383 36.9653 406.327 36.72 407.362 36.72C408.546 36.72 409.591 37.0133 410.498 37.6C411.415 38.1867 412.082 39.0133 412.498 40.08H410.754ZM418.583 48.144C417.761 48.144 417.015 47.9573 416.343 47.584C415.681 47.2107 415.159 46.6827 414.775 46C414.401 45.3067 414.215 44.5067 414.215 43.6C414.215 42.704 414.407 41.9147 414.791 41.232C415.185 40.5387 415.719 40.0107 416.391 39.648C417.063 39.2747 417.815 39.088 418.647 39.088C419.479 39.088 420.231 39.2747 420.903 39.648C421.575 40.0107 422.103 40.5333 422.487 41.216C422.881 41.8987 423.079 42.6933 423.079 43.6C423.079 44.5067 422.876 45.3067 422.471 46C422.076 46.6827 421.537 47.2107 420.855 47.584C420.172 47.9573 419.415 48.144 418.583 48.144ZM418.583 46.864C419.105 46.864 419.596 46.7413 420.055 46.496C420.513 46.2507 420.881 45.8827 421.159 45.392C421.447 44.9013 421.591 44.304 421.591 43.6C421.591 42.896 421.452 42.2987 421.175 41.808C420.897 41.3173 420.535 40.9547 420.087 40.72C419.639 40.4747 419.153 40.352 418.631 40.352C418.097 40.352 417.607 40.4747 417.159 40.72C416.721 40.9547 416.369 41.3173 416.103 41.808C415.836 42.2987 415.703 42.896 415.703 43.6C415.703 44.3147 415.831 44.9173 416.087 45.408C416.353 45.8987 416.705 46.2667 417.143 46.512C417.58 46.7467 418.06 46.864 418.583 46.864ZM428.817 48.144C427.996 48.144 427.249 47.9573 426.577 47.584C425.916 47.2107 425.393 46.6827 425.009 46C424.636 45.3067 424.449 44.5067 424.449 43.6C424.449 42.704 424.641 41.9147 425.025 41.232C425.42 40.5387 425.953 40.0107 426.625 39.648C427.297 39.2747 428.049 39.088 428.881 39.088C429.713 39.088 430.465 39.2747 431.137 39.648C431.809 40.0107 432.337 40.5333 432.721 41.216C433.116 41.8987 433.313 42.6933 433.313 43.6C433.313 44.5067 433.111 45.3067 432.705 46C432.311 46.6827 431.772 47.2107 431.089 47.584C430.407 47.9573 429.649 48.144 428.817 48.144ZM428.817 46.864C429.34 46.864 429.831 46.7413 430.289 46.496C430.748 46.2507 431.116 45.8827 431.393 45.392C431.681 44.9013 431.825 44.304 431.825 43.6C431.825 42.896 431.687 42.2987 431.409 41.808C431.132 41.3173 430.769 40.9547 430.321 40.72C429.873 40.4747 429.388 40.352 428.865 40.352C428.332 40.352 427.841 40.4747 427.393 40.72C426.956 40.9547 426.604 41.3173 426.337 41.808C426.071 42.2987 425.937 42.896 425.937 43.6C425.937 44.3147 426.065 44.9173 426.321 45.408C426.588 45.8987 426.94 46.2667 427.377 46.512C427.815 46.7467 428.295 46.864 428.817 46.864ZM438.844 39.088C439.601 39.088 440.262 39.2533 440.828 39.584C441.404 39.9147 441.83 40.3307 442.108 40.832V39.232H443.58V48.192C443.58 48.992 443.409 49.7013 443.068 50.32C442.726 50.9493 442.236 51.44 441.596 51.792C440.966 52.144 440.23 52.32 439.388 52.32C438.236 52.32 437.276 52.048 436.508 51.504C435.74 50.96 435.286 50.2187 435.148 49.28H436.588C436.748 49.8133 437.078 50.24 437.58 50.56C438.081 50.8907 438.684 51.056 439.388 51.056C440.188 51.056 440.838 50.8053 441.34 50.304C441.852 49.8027 442.108 49.0987 442.108 48.192V46.352C441.82 46.864 441.393 47.2907 440.828 47.632C440.262 47.9733 439.601 48.144 438.844 48.144C438.065 48.144 437.356 47.952 436.716 47.568C436.086 47.184 435.59 46.6453 435.228 45.952C434.865 45.2587 434.684 44.4693 434.684 43.584C434.684 42.688 434.865 41.904 435.228 41.232C435.59 40.5493 436.086 40.0213 436.716 39.648C437.356 39.2747 438.065 39.088 438.844 39.088ZM442.108 43.6C442.108 42.9387 441.974 42.3627 441.708 41.872C441.441 41.3813 441.078 41.008 440.62 40.752C440.172 40.4853 439.676 40.352 439.132 40.352C438.588 40.352 438.092 40.48 437.644 40.736C437.196 40.992 436.838 41.3653 436.572 41.856C436.305 42.3467 436.172 42.9227 436.172 43.584C436.172 44.256 436.305 44.8427 436.572 45.344C436.838 45.8347 437.196 46.2133 437.644 46.48C438.092 46.736 438.588 46.864 439.132 46.864C439.676 46.864 440.172 46.736 440.62 46.48C441.078 46.2133 441.441 45.8347 441.708 45.344C441.974 44.8427 442.108 44.2613 442.108 43.6ZM447.496 36.16V48H446.04V36.16H447.496ZM457.978 43.28C457.978 43.5573 457.962 43.8507 457.93 44.16H450.922C450.975 45.024 451.268 45.7013 451.802 46.192C452.346 46.672 453.002 46.912 453.77 46.912C454.399 46.912 454.922 46.768 455.338 46.48C455.764 46.1813 456.063 45.7867 456.234 45.296H457.802C457.567 46.1387 457.098 46.8267 456.394 47.36C455.69 47.8827 454.815 48.144 453.77 48.144C452.938 48.144 452.191 47.9573 451.53 47.584C450.879 47.2107 450.367 46.6827 449.994 46C449.62 45.3067 449.434 44.5067 449.434 43.6C449.434 42.6933 449.615 41.8987 449.978 41.216C450.34 40.5333 450.847 40.0107 451.498 39.648C452.159 39.2747 452.916 39.088 453.77 39.088C454.602 39.088 455.338 39.2693 455.978 39.632C456.618 39.9947 457.108 40.496 457.45 41.136C457.802 41.7653 457.978 42.48 457.978 43.28ZM456.474 42.976C456.474 42.4213 456.351 41.9467 456.106 41.552C455.86 41.1467 455.524 40.8427 455.098 40.64C454.682 40.4267 454.218 40.32 453.706 40.32C452.97 40.32 452.34 40.5547 451.818 41.024C451.306 41.4933 451.012 42.144 450.938 42.976H456.474Z" fill="#2F2F2F"/>
<defs>
<filter id="filter0_d_25_924" x="0.0474854" y="0" width="690.893" height="86.7891" filterUnits="userSpaceOnUse" color-interpolation-filters="sRGB">
<feFlood flood-opacity="0" result="BackgroundImageFix"/>
<feColorMatrix in="SourceAlpha" type="matrix" values="0 0 0 0 0 0 0 0 0 0 0 0 0 0 0 0 0 0 127 0" result="hardAlpha"/>
<feOffset dy="4"/>
<feGaussianBlur stdDeviation="7.5"/>
<feComposite in2="hardAlpha" operator="out"/>
<feColorMatrix type="matrix" values="0 0 0 0 0 0 0 0 0 0 0 0 0 0 0 0 0 0 0.11 0"/>
<feBlend mode="normal" in2="BackgroundImageFix" result="effect1_dropShadow_25_924"/>
<feBlend mode="normal" in="SourceGraphic" in2="effect1_dropShadow_25_924" result="shape"/>
</filter>
<clipPath id="clip0_25_924">
<rect width="31.0552" height="23.2981" fill="white" transform="translate(252.814 29.2017)"/>
</clipPath>
</defs>
</svg>
