<svg width="84" height="71" viewBox="0 0 84 71" fill="none" xmlns="http://www.w3.org/2000/svg">
<path d="M27.9 48.6874C26.8275 48.6874 25.9091 48.3359 25.1447 47.6331C24.3803 46.9303 23.9987 46.0864 24 45.1014V23.5859C24 22.5998 24.3822 21.7553 25.1466 21.0525C25.911 20.3496 26.8288 19.9988 27.9 20H59.1C60.1725 20 61.0909 20.3514 61.8553 21.0543C62.6197 21.7571 63.0013 22.601 63 23.5859V45.1014C63 46.0876 57.3294 47.9845 56.565 48.6874C55.8006 49.3902 60.1712 48.6886 59.1 48.6874H27.9ZM43.5 35.8229C43.6625 35.8229 43.8335 35.8002 44.0128 35.7547C44.1922 35.7093 44.3625 35.6424 44.5237 35.5539L58.32 27.6201C58.58 27.4707 58.775 27.2836 58.905 27.0589C59.035 26.8342 59.1 26.5879 59.1 26.3202C59.1 25.7225 58.8237 25.2743 58.2712 24.9755C57.7187 24.6766 57.15 24.6916 56.565 25.0203L43.5 32.5507L30.435 25.0203C29.85 24.6916 29.2813 24.6844 28.7288 24.9988C28.1763 25.3131 27.9 25.7536 27.9 26.3202C27.9 26.619 27.965 26.8808 28.095 27.1055C28.225 27.3302 28.42 27.5017 28.68 27.6201L42.4762 35.5539C42.6388 35.6436 42.8097 35.7111 42.9891 35.7565C43.1685 35.802 43.3388 35.8241 43.5 35.8229Z" fill="white"/>
<path d="M22.9238 67.7597L3.72628 35.9908L23.7552 3.4295L61.9502 2.99307L80.3672 35.0151L61.1312 67.3231L22.9238 67.7597Z" stroke="#FAFAFA" stroke-width="5"/>
</svg>
