<svg width="51" height="51" viewBox="0 0 51 51" fill="none" xmlns="http://www.w3.org/2000/svg">
<path fill-rule="evenodd" clip-rule="evenodd" d="M2.04 0H48.96C50.0884 0 51 0.911625 51 2.04V48.96C51 50.0884 50.0884 51 48.96 51H2.04C0.911625 51 0 50.0884 0 48.96V2.04C0 0.911625 0.911625 0 2.04 0ZM41 25C41 16.7155 34.2845 10 26 10C17.7155 10 11 16.7155 11 25C10.9956 27.652 11.6977 30.2573 13.034 32.548L11.006 40L18.455 37.9675C20.745 39.3027 23.3492 40.0043 26 40C34.2845 40 41 33.2845 41 25ZM20.588 17.962L20.888 17.95L20.8865 17.9485C20.9875 17.9475 21.0886 17.9495 21.1895 17.9545C21.2705 17.9605 21.3515 17.9695 21.4325 17.9785C21.671 18.007 21.9335 18.151 22.022 18.352C22.469 19.366 22.904 20.3875 23.324 21.4135C23.417 21.64 23.3615 21.9325 23.1845 22.2175C23.0945 22.363 22.955 22.567 22.79 22.777C22.6205 22.993 22.256 23.392 22.256 23.392C22.256 23.392 22.1075 23.569 22.1645 23.7895C22.2026 23.8979 22.2539 24.0012 22.3175 24.097L22.406 24.2395C22.8316 24.937 23.3459 25.5763 23.936 26.1415C23.9845 26.1884 24.0327 26.2357 24.0809 26.283C24.2116 26.4114 24.3424 26.5399 24.4805 26.6605C25.185 27.2817 25.9821 27.7893 26.843 28.165C26.8957 28.1873 26.9376 28.2055 26.9818 28.2247C27.0445 28.252 27.1119 28.2812 27.221 28.327C27.3141 28.3667 27.4098 28.3998 27.5075 28.426C27.6085 28.452 27.7149 28.4473 27.8132 28.4126C27.9115 28.3778 27.9973 28.3146 28.0595 28.231C29.144 26.917 29.2445 26.8315 29.252 26.8345C29.3275 26.7641 29.4171 26.7107 29.5149 26.6779C29.6127 26.645 29.7164 26.6334 29.819 26.644C29.91 26.6482 29.9995 26.669 30.083 26.7055C30.881 27.0685 32.186 27.637 32.186 27.637L33.059 28.0285C33.2045 28.099 33.338 28.2655 33.344 28.426C33.3443 28.4316 33.3445 28.4375 33.3448 28.4435C33.3495 28.5451 33.357 28.7051 33.323 28.9855C33.275 29.374 33.158 29.8405 33.041 30.085C32.9585 30.2575 32.8505 30.409 32.726 30.538C32.558 30.7135 32.4335 30.82 32.231 30.97C32.108 31.063 32.0435 31.105 32.0435 31.105C31.8571 31.2237 31.6654 31.3338 31.469 31.435C31.0829 31.6406 30.6564 31.7589 30.2195 31.7815C30.171 31.7838 30.1225 31.7864 30.0741 31.789C29.844 31.8012 29.6147 31.8134 29.3855 31.801L28.5335 31.6705C26.4009 31.1095 24.4286 30.0587 22.7735 28.6015C22.4816 28.3444 22.2074 28.0707 21.9319 27.7955C21.8875 27.7512 21.8431 27.7068 21.7985 27.6625C20.4665 26.335 19.457 24.9025 18.8435 23.5495C18.5435 22.8805 18.3515 22.165 18.3485 21.43C18.344 20.52 18.6427 19.6343 19.1975 18.913C19.2141 18.8914 19.2306 18.8696 19.2471 18.8478C19.3398 18.7254 19.4363 18.5978 19.589 18.454C19.7188 18.3193 19.8673 18.2041 20.03 18.112C20.204 18.0248 20.3938 17.9738 20.588 17.962ZM20.8864 17.9485C20.7859 17.9495 20.6854 17.9535 20.585 17.9605L20.8864 17.9485Z" fill="white"/>
</svg>
