<svg width="51" height="51" viewBox="0 0 51 51" fill="none" xmlns="http://www.w3.org/2000/svg">
<path fill-rule="evenodd" clip-rule="evenodd" d="M2.04 0H48.96C50.0884 0 51 0.911625 51 2.04V48.96C51 50.0884 50.0884 51 48.96 51H2.04C0.911625 51 0 50.0884 0 48.96V2.04C0 0.911625 0.911625 0 2.04 0ZM19.5385 11H32.4615C34.4602 11.0021 36.3764 11.7971 37.7897 13.2103C39.2029 14.6236 39.9979 16.5398 40 18.5385V31.4615C39.9979 33.4602 39.2029 35.3764 37.7897 36.7897C36.3764 38.2029 34.4602 38.9979 32.4615 39H19.5385C17.5398 38.9979 15.6236 38.2029 14.2103 36.7897C12.7971 35.3764 12.0021 33.4602 12 31.4615V18.5385C12.0021 16.5398 12.7971 14.6236 14.2103 13.2103C15.6236 11.7971 17.5398 11.0021 19.5385 11ZM22.4102 30.3726C23.4728 31.0826 24.722 31.4615 26 31.4615C27.7132 31.4598 29.3556 30.7784 30.567 29.567C31.7784 28.3556 32.4598 26.7132 32.4615 25C32.4615 23.722 32.0826 22.4728 31.3726 21.4102C30.6626 20.3476 29.6534 19.5194 28.4727 19.0303C27.292 18.5413 25.9928 18.4133 24.7394 18.6626C23.486 18.9119 22.3347 19.5273 21.431 20.431C20.5273 21.3347 19.9119 22.486 19.6626 23.7394C19.4133 24.9928 19.5413 26.292 20.0303 27.4727C20.5194 28.6534 21.3476 29.6626 22.4102 30.3726ZM33.1795 18.2662C33.4451 18.4437 33.7574 18.5385 34.0769 18.5385C34.5054 18.5385 34.9162 18.3683 35.2192 18.0653C35.5221 17.7624 35.6923 17.3515 35.6923 16.9231C35.6923 16.6036 35.5976 16.2913 35.4201 16.0256C35.2426 15.76 34.9903 15.5529 34.6951 15.4307C34.3999 15.3084 34.0751 15.2764 33.7618 15.3387C33.4484 15.4011 33.1606 15.5549 32.9347 15.7808C32.7088 16.0067 32.5549 16.2946 32.4926 16.6079C32.4302 16.9213 32.4622 17.2461 32.5845 17.5413C32.7068 17.8364 32.9138 18.0887 33.1795 18.2662ZM29.5817 27.3932C30.0551 26.6848 30.3077 25.852 30.3077 25C30.3077 23.8575 29.8538 22.7619 29.046 21.954C28.2381 21.1462 27.1425 20.6923 26 20.6923C25.148 20.6923 24.3152 20.945 23.6068 21.4183C22.8984 21.8916 22.3463 22.5644 22.0202 23.3515C21.6942 24.1386 21.6089 25.0048 21.7751 25.8404C21.9413 26.676 22.3516 27.4436 22.954 28.046C23.5564 28.6484 24.324 29.0587 25.1596 29.2249C25.9952 29.3911 26.8614 29.3058 27.6485 28.9798C28.4356 28.6538 29.1084 28.1016 29.5817 27.3932Z" fill="white"/>
</svg>
