<svg width="80" height="70" viewBox="0 0 80 70" fill="none" xmlns="http://www.w3.org/2000/svg">
<path d="M31.0333 28.9833C33.4333 33.7 37.3 37.55 42.0167 39.9667L45.6833 36.3C46.1333 35.85 46.8 35.7 47.3833 35.9C49.25 36.5167 51.2667 36.85 53.3333 36.85C54.25 36.85 55 37.6 55 38.5167V44.3333C55 45.25 54.25 46 53.3333 46C37.6833 46 25 33.3167 25 17.6667C25 16.75 25.75 16 26.6667 16H32.5C33.4167 16 34.1667 16.75 34.1667 17.6667C34.1667 19.75 34.5 21.75 35.1167 23.6167C35.3 24.2 35.1667 24.85 34.7 25.3167L31.0333 28.9833Z" fill="white"/>
<path d="M21.9799 66.9648L3.21199 35.0322L21.9852 2.85545L58.373 2.85546L76.3957 35.0324L58.3782 66.9648L21.9799 66.9648Z" stroke="#FAFAFA" stroke-width="5"/>
</svg>
