<svg width="51" height="51" viewBox="0 0 51 51" fill="none" xmlns="http://www.w3.org/2000/svg">
<path fill-rule="evenodd" clip-rule="evenodd" d="M2.04 0H48.96C50.0884 0 51 0.911625 51 2.04V48.96C51 50.0884 50.0884 51 48.96 51H2.04C0.911625 51 0 50.0884 0 48.96V2.04C0 0.911625 0.911625 0 2.04 0ZM31.5714 27.1H28V39H22.2857V27.1H18V21.5H22.2857V17.58C22.2857 13.3198 25.04 11 28.9186 11C30.7757 11 32.5343 11.1358 33 11.196V15.9H30.8571C28 15.9 28 17.258 28 18.7V21.5H33L31.5714 27.1Z" fill="white"/>
</svg>
