<svg width="37" height="38" viewBox="0 0 37 38" fill="none" xmlns="http://www.w3.org/2000/svg">
<path d="M17.4421 30.0833V31.6667C17.4421 32.0866 17.2845 32.4893 17.0039 32.7863C16.7233 33.0832 16.3428 33.25 15.946 33.25H12.9537V34.8333C12.9537 35.6732 12.6385 36.4786 12.0773 37.0725C11.5161 37.6664 10.755 38 9.96143 38H3.97687C3.18327 38 2.42217 37.6664 1.86101 37.0725C1.29985 36.4786 0.984589 35.6732 0.984589 34.8333V30.7388C0.984758 29.899 1.30013 29.0937 1.86133 28.5L13.4415 16.245C12.7314 13.6934 12.7984 10.97 13.6329 8.461C14.4675 5.95196 16.0272 3.78463 18.0909 2.26631C20.1547 0.74799 22.6177 -0.0442559 25.1308 0.0019088C27.6438 0.0480735 30.0794 0.930306 32.0921 2.52351C34.1048 4.11671 35.5925 6.34003 36.3443 8.8782C37.096 11.4164 37.0737 14.1406 36.2804 16.6645C35.4871 19.1885 33.9631 21.3841 31.9245 22.9401C29.886 24.4961 27.4363 25.3334 24.9228 25.3333H21.9276V28.5C21.9276 28.9199 21.7699 29.3227 21.4894 29.6196C21.2088 29.9165 20.8282 30.0833 20.4314 30.0833H17.4391H17.4421ZM27.9151 12.6667C28.7087 12.6667 29.4698 12.333 30.031 11.7392C30.5921 11.1453 30.9074 10.3399 30.9074 9.5C30.9074 8.66015 30.5921 7.8547 30.031 7.26083C29.4698 6.66697 28.7087 6.33333 27.9151 6.33333C27.1215 6.33333 26.3604 6.66697 25.7993 7.26083C25.2381 7.8547 24.9228 8.66015 24.9228 9.5C24.9228 10.3399 25.2381 11.1453 25.7993 11.7392C26.3604 12.333 27.1215 12.6667 27.9151 12.6667Z" fill="black"/>
</svg>
